<svg width="160" height="160" xmlns="http://www.w3.org/2000/svg" xmlns:xlink="http://www.w3.org/1999/xlink" overflow="hidden"><defs><clipPath id="clip0"><path d="M122.586 80.1217 112.639 90.0688 102.692 80.1217 112.639 70.1747Z" fill-rule="evenodd" clip-rule="evenodd"/></clipPath><clipPath id="clip1"><path d="M122.586 80.1217 112.639 90.0688 102.692 80.1217 112.639 70.1747Z" fill-rule="evenodd" clip-rule="evenodd"/></clipPath><clipPath id="clip2"><path d="M122.586 80.1217 112.639 90.0688 102.692 80.1217 112.639 70.1747Z" fill-rule="evenodd" clip-rule="evenodd"/></clipPath></defs><g><rect x="0" y="0" width="160" height="160" fill="#FFFFFF"/><text fill="#422AD5" font-family="Lato,Lato_MSFontService,sans-serif" font-weight="700" font-size="12" transform="translate(47.8434 86)">MentorCha</text><g><g><g><path d="M61.3021 76.8438C60.8125 76.8438 60.3958 77.2688 60.237 77.4536 60.1969 77.5017 60.1989 77.572 60.2417 77.6177 60.4036 77.7859 60.8172 78.1562 61.3021 78.1562 61.787 78.1562 62.2 77.7859 62.362 77.6182 62.4052 77.5726 62.4073 77.5017 62.3667 77.4536 62.2083 77.2688 61.7911 76.8438 61.3021 76.8438ZM60.9953 77.1208C60.786 77.2897 60.7532 77.5963 60.9221 77.8056 60.9507 77.841 60.9841 77.8723 61.0214 77.8984 60.8067 77.8169 60.6116 77.6912 60.4484 77.5297 60.6021 77.3588 60.7879 77.2198 60.9953 77.1208ZM61.5828 77.8984C61.803 77.7435 61.8558 77.4393 61.7008 77.2192 61.6749 77.1823 61.6439 77.1492 61.6089 77.1208 61.8162 77.2199 62.002 77.3588 62.1557 77.5297 61.9925 77.6911 61.7974 77.8167 61.5828 77.8984Z" fill="#422AD5"/><path d="M64.7625 77.4536C64.6062 77.2688 64.1896 76.8438 63.6979 76.8438 63.2062 76.8438 62.7917 77.2688 62.6328 77.4536 62.5928 77.5017 62.5948 77.572 62.6375 77.6177 62.7995 77.7859 63.213 78.1562 63.6979 78.1562 64.1828 78.1562 64.5958 77.7859 64.7578 77.6182 64.8011 77.5726 64.8031 77.5017 64.7625 77.4536ZM63.3911 77.1208C63.1818 77.2897 63.1491 77.5963 63.3179 77.8056 63.3465 77.841 63.3799 77.8723 63.4172 77.8984 63.2026 77.8169 63.0074 77.6912 62.8443 77.5297 62.9979 77.3588 63.1837 77.2198 63.3911 77.1208ZM63.9786 77.8984C64.1988 77.7435 64.2516 77.4393 64.0967 77.2192 64.0707 77.1823 64.0397 77.1492 64.0047 77.1208 64.212 77.2199 64.3979 77.3588 64.5516 77.5297 64.3883 77.6911 64.1932 77.8167 63.9786 77.8984Z" fill="#422AD5"/></g></g></g><g clip-path="url(#clip0)"><g clip-path="url(#clip1)"><g clip-path="url(#clip2)"><path d="M112.628 75.3451C112.214 75.3451 111.893 75.0239 111.893 74.6094L112.483 73.4385 112.794 73.4385 113.385 74.6094C113.364 75.0239 113.043 75.3451 112.628 75.3451ZM113.965 84.8259 113.955 74.454 112.639 71.8325 111.313 74.4643 111.313 84.8259" fill="#422AD5"/><path d="M111.903 87.4473 113.374 87.4473C113.706 87.4473 113.965 87.1883 113.965 86.8567L113.965 85.4061 111.333 85.4061 111.333 86.8567C111.313 87.1883 111.572 87.4473 111.903 87.4473Z" fill="#422AD5"/></g></g></g><g><g><g><path d="M113.536 68.2078C113.677 68.1125 113.839 68.0057 113.796 67.8432 113.793 67.8307 113.747 67.8307 113.744 67.8432 113.723 67.9344 113.701 68.0167 113.484 68.1557 113.471 68.1635 113.517 68.2203 113.536 68.2078Z" fill="#422AD5"/><path d="M112.911 69.174C112.924 69.1635 113.036 69.1219 113.047 69.1 113.066 69.0623 113.092 69.029 113.125 69.0021 113.134 68.9971 113.144 68.9948 113.154 68.9953L113.171 69.0125C113.188 69.0231 113.204 69.0348 113.219 69.0474 113.224 69.0542 113.215 69.0604 113.215 69.0604L113.215 69.0604 113.193 69.0651C113.195 69.0707 113.196 69.0765 113.197 69.0823 113.197 69.0938 113.149 69.1172 113.149 69.1172L113.171 69.1432C113.171 69.1432 113.228 69.1516 113.206 69.187L113.154 69.2438 113.128 69.3005C113.128 69.3005 113.128 69.3401 113.115 69.3484 113.102 69.3568 113.097 69.3443 113.076 69.3531 113.026 69.3591 112.976 69.3523 112.929 69.3333 112.924 69.3193 112.923 69.3043 112.924 69.2896 112.924 69.2896 112.914 69.2896 112.901 69.2698 112.884 69.2386 112.889 69.2007 112.911 69.174Z" fill="#422AD5"/><path d="M112.711 69.4099C112.663 69.3693 112.619 69.3239 112.58 69.2745L112.549 69.2484 112.453 69.1302 112.418 69.0953C112.418 69.0953 112.404 69.0823 112.414 69.0781 112.441 69.0752 112.467 69.0782 112.493 69.087 112.508 69.0943 112.588 69.1875 112.602 69.187 112.616 69.1865 112.625 69.1807 112.636 69.187 112.654 69.2016 112.67 69.2176 112.684 69.2349 112.694 69.2383 112.703 69.2429 112.711 69.2484 112.719 69.2604 112.725 69.2736 112.728 69.2875 112.738 69.3037 112.751 69.3172 112.768 69.3266 112.799 69.3484 112.785 69.3484 112.785 69.3484L112.776 69.388C112.776 69.388 112.785 69.4271 112.776 69.4359 112.767 69.4448 112.757 69.4406 112.711 69.4099Z" fill="#422AD5"/><path d="M112.484 66.4688C111.391 66.4688 110.505 67.3549 110.505 68.4479 110.505 69.541 111.391 70.4271 112.484 70.4271 113.577 70.4271 114.464 69.541 114.464 68.4479 114.464 67.3549 113.577 66.4688 112.484 66.4688ZM113.434 66.9542C113.427 66.9604 113.426 66.9734 113.426 67.0005 113.426 67.0526 113.322 67.0005 113.218 67.0005 113.114 67.0005 112.957 67.0526 112.905 67.0526 112.853 67.0526 112.801 67.1047 112.749 67.1047 112.697 67.1047 112.741 67.0292 112.697 67.0005 112.428 66.8229 112.124 67.1047 112.072 67.0526 112.02 67.0005 111.811 67.1047 111.721 67.1109 111.631 67.1172 111.551 67.1047 111.603 67.0526 111.655 67.0005 111.603 67.0005 111.551 66.9484L111.548 66.9458C112.126 66.5845 112.859 66.5878 113.434 66.9542ZM113.633 67.1016C114.376 67.7335 114.466 68.8485 113.835 69.5919 113.827 69.6002 113.82 69.6085 113.813 69.6167 113.804 69.6214 113.804 69.6167 113.803 69.6099 113.802 69.6031 113.803 69.588 113.811 69.588 113.819 69.588 113.83 69.5828 113.831 69.5771 113.832 69.5714 113.834 69.525 113.835 69.5224 113.837 69.5198 113.828 69.5031 113.827 69.5005 113.819 69.4782 113.813 69.4552 113.809 69.4318 113.809 69.4229 113.809 69.4156 113.809 69.4161 113.797 69.4278 113.786 69.4414 113.778 69.4563 113.769 69.4797 113.766 69.5042 113.758 69.5333 113.753 69.5713 113.731 69.6048 113.698 69.624 113.667 69.638 113.61 69.5151 113.61 69.5115 113.61 69.508 113.611 69.5048 113.614 69.5026 113.623 69.4972 113.632 69.4913 113.641 69.4849 113.65 69.479 113.658 69.472 113.665 69.4641 113.665 69.4552 113.658 69.4422 113.654 69.4458 113.649 69.4495 113.642 69.4512 113.636 69.4505 113.631 69.4484 113.626 69.4446 113.623 69.4396 113.606 69.4318 113.589 69.4257 113.571 69.4214 113.563 69.4214 113.558 69.4161 113.552 69.4214 113.546 69.4266 113.539 69.4542 113.539 69.4542 113.539 69.4542 113.507 69.4906 113.507 69.4906 113.507 69.4906 113.403 69.5729 113.379 69.5693 113.355 69.5656 113.333 69.5938 113.333 69.5938 113.318 69.5969 113.281 69.6417 113.276 69.6458 113.271 69.65 113.107 69.7589 113.072 69.776 113.056 69.7839 113.025 69.7802 113.02 69.7854 112.99 69.8203 112.968 69.8617 112.957 69.9062 112.957 69.9219 112.924 69.9292 112.921 69.951 112.916 69.9859 112.943 70.0234 112.943 70.0401 112.944 70.051 112.944 70.062 112.943 70.0729 112.943 70.0729 112.926 70.0823 112.925 70.0859 112.923 70.0886 112.923 70.0921 112.925 70.0948 112.937 70.1002 112.949 70.1046 112.961 70.1078 112.974 70.1078 112.979 70.0823 112.978 70.0531L113.008 70.0406C113.033 70.0257 113.062 70.0218 113.09 70.0297 113.177 70.0443 113.189 70.051 113.213 70.0427 113.23 70.0386 113.247 70.0362 113.265 70.0354 112.387 70.4664 111.326 70.1041 110.895 69.2261 110.801 69.0357 110.743 68.8299 110.722 68.6188 110.84 68.6552 111.065 68.638 111.275 68.4583 111.343 68.4 111.269 68.3682 111.215 68.3266 111.161 68.2849 111.481 68.3474 111.535 68.3786 111.589 68.4099 111.564 68.4656 111.568 68.4828 111.601 68.5851 111.641 68.6849 111.688 68.7818 111.763 68.938 111.787 68.9849 111.817 68.9682 111.856 68.9292 111.873 68.8731 111.863 68.8187 111.854 68.7526 111.854 68.6901 111.89 68.7099 111.926 68.7297 112.061 68.6156 112.126 68.5656 112.191 68.5156 112.194 68.5286 112.223 68.4745 112.253 68.4203 112.24 68.4828 112.305 68.5568 112.369 68.6307 112.39 68.6365 112.379 68.6573 112.369 68.6781 112.356 68.7443 112.41 68.7651 112.421 68.77 112.434 68.767 112.441 68.7578 112.433 68.8443 112.452 68.9797 112.584 69.1344 112.641 69.2005 112.717 69.2422 112.741 69.2245 112.764 69.2068 112.555 68.912 112.588 68.8271 112.621 68.7422 112.654 68.8562 112.723 68.8974 112.793 68.9385 112.776 68.9599 112.866 68.8974 112.957 68.8349 112.879 68.7479 112.808 68.6776 112.737 68.6073 112.795 68.5818 112.85 68.5391 112.905 68.4964 112.883 68.5911 112.92 68.5943 112.957 68.5974 112.999 68.5031 113.09 68.4823 113.181 68.4615 113.206 68.3578 113.243 68.2859 113.279 68.2141 113.198 68.1714 113.139 68.0964 113.079 68.0214 113.257 67.9271 113.281 67.9792 113.306 68.0312 113.293 68.0833 113.347 68.1214 113.401 68.1594 113.421 68.0542 113.399 68.0172 113.377 67.9802 113.347 68.0172 113.347 67.913 113.347 67.8089 113.503 67.7047 113.555 67.7047 113.607 67.7047 113.555 67.5484 113.503 67.4854 113.451 67.4224 113.347 67.4443 113.32 67.4568 113.294 67.4693 113.349 67.3922 113.379 67.3156 113.408 67.2391 113.506 67.288 113.506 67.288L113.558 67.2359C113.558 67.2359 113.582 67.3203 113.607 67.324 113.631 67.3276 113.636 67.262 113.636 67.2099L113.636 67.1188Z" fill="#422AD5"/><path d="M113.579 69.0661 113.709 69.2396C113.724 69.2599 113.752 69.2665 113.774 69.2552L113.84 69.2224 113.927 69.2516C113.954 69.2608 113.984 69.2462 113.993 69.219 113.995 69.2127 113.996 69.2061 113.996 69.1995L113.996 69.1995C113.996 69.1811 113.986 69.1641 113.97 69.1547L113.75 69.0208C113.742 69.0161 113.732 69.0136 113.723 69.0135 113.723 69.0135 113.591 69.0005 113.581 69.0135 113.572 69.0266 113.579 69.0661 113.579 69.0661Z" fill="#422AD5"/></g></g></g></g></svg>